<mxfile host="app.diagrams.net" modified="2023-05-31T08:04:11.674Z" agent="Mozilla/5.0 (Macintosh; Intel Mac OS X 10_15_7) AppleWebKit/537.36 (KHTML, like Gecko) Chrome/113.0.0.0 Safari/537.36" version="21.3.4" etag="xF7N2Dlps5HfOJrUe-_p" type="github">
  <diagram name="第 1 页" id="eCZ9-1Sb3g5SMGdNBWR5">
    <mxGraphModel>
      <root>
        <mxCell id="0" />
        <mxCell id="1" parent="0" />
      </root>
    </mxGraphModel>
  </diagram>
</mxfile>
